<svg xmlns="http://www.w3.org/2000/svg" width="48.6mm" height="80.211mm" viewBox="0 0 137.763 227.37">
  <title>s</title>
  <path d="M366.52,486.92a115.363,115.363,0,0,1-24.237,10.2q-12.609,3.687-25.087,8.221a40.724,40.724,0,0,0-8.079,2.693,71.951,71.951,0,0,1-8.22,3.118,35.682,35.682,0,0,1-8.079,1.559,13.79,13.79,0,0,1-7.937-1.985q-14.17-7.082-28.2-13.464t-27.638-14.032q-.565-51.022,0-101.763a101.769,101.769,0,0,0,12.472-4.677q5.953-2.691,12.048-5.386t12.189-5.1a81.819,81.819,0,0,1,12.614-3.827q4.537,5.952,9.071,12.614a42.939,42.939,0,0,0,11.055,11.2,47.914,47.914,0,0,1,7.369-2.551,7.777,7.777,0,0,0,5.67-4.819q.572-11.621.284-22.961t.283-22.96a35.264,35.264,0,0,0-.709-6.945,23.419,23.419,0,0,0-2.408-6.662q-13.608,4.252-27.355,8.646t-27.354,9.212a40.656,40.656,0,0,1-9.213-10.2q-3.542-5.667-7.512-11.339-1.98-3.115-3.969-6.519a11.738,11.738,0,0,1-1.418-7.654q14.744-3.4,28.914-7.8t28.914-7.8a16.552,16.552,0,0,1,6.378-.425,23.565,23.565,0,0,1,5.952,1.7,47.964,47.964,0,0,1,5.811,2.976,39.667,39.667,0,0,0,5.67,2.835,148.135,148.135,0,0,0,19.842,9.78,91.574,91.574,0,0,1,19.276,10.629,10.11,10.11,0,0,1,1.275,5.528q-.138,2.976-.141,6.1-.279,18.144-.142,36.283t.142,36.283v5.811a9.336,9.336,0,0,1-1.7,5.245,62.859,62.859,0,0,1-10.772,5.244q-5.666,2.126-11.338,4.677-6.517,2.551-12.615,5.668a26.091,26.091,0,0,1-13.181,2.835q-2.55-3.115-4.96-6.519t-4.96-6.661a32.263,32.263,0,0,0-5.67-5.67,25.627,25.627,0,0,0-7.086-3.826,41.9,41.9,0,0,1-4.82,3.118,22.068,22.068,0,0,0-4.819,3.685q-.564,16.728-.283,33.449t.283,33.732Q289.42,473.885,306,467.928t32.74-12.473a360.043,360.043,0,0,1,24.377,26.929Z" transform="translate(-228.756 -285.376)" fill="#231f20"/>
</svg>
